<svg xmlns:xlink="http://www.w3.org/1999/xlink" xmlns="http://www.w3.org/2000/svg" version="1.1" viewBox="0 0 330 413" height="413px" width="330px">
    <title>10</title>
    <defs>
        <linearGradient id="linearGradient-1" y2="100%" x2="50%" y1="0%" x1="50%">
            <stop offset="0%" stop-color="#EAEAEA"></stop>
            <stop offset="99.9262456%" stop-color="#797979"></stop>
        </linearGradient>
        <linearGradient id="linearGradient-2" y2="100%" x2="50%" y1="0%" x1="50%">
            <stop offset="0%" stop-color="#84614A"></stop>
            <stop offset="100%" stop-color="#472B1C"></stop>
        </linearGradient>
        <linearGradient id="linearGradient-3" y2="99.4318182%" x2="50%" y1="0%" x1="50%">
            <stop offset="0%" stop-color="#AED776"></stop>
            <stop offset="100%" stop-color="#A2C066"></stop>
        </linearGradient>
        <linearGradient id="linearGradient-4" y2="99.4318182%" x2="50%" y1="0%" x1="50%">
            <stop offset="0%" stop-color="#FBDBC8"></stop>
            <stop offset="34.2411495%" stop-color="#BECE85"></stop>
            <stop offset="100%" stop-color="#A2C066"></stop>
        </linearGradient>
        <linearGradient id="linearGradient-5" y2="100%" x2="50%" y1="0%" x1="50%">
            <stop offset="0%" stop-color="#E9D1E0"></stop>
            <stop offset="59.1646635%" stop-color="#F8BBB9"></stop>
            <stop offset="100%" stop-color="#F790C2"></stop>
        </linearGradient>
        <path id="path-6" d="M18.0403754,32.9688514 C21.2476776,26.4993326 22.8556351,20.561127 22.864248,15.1542347 C22.8728177,9.74734244 21.1718452,4.98943837 17.7613305,0.88052254 C13.7090244,5.15878174 11.6785671,10.0013575 11.6699585,15.4082498 C11.6613845,20.8151421 13.7848568,26.668676 18.0403754,32.9688514 Z"></path>
        <linearGradient id="linearGradient-8" y2="100%" x2="50%" y1="0%" x1="50%">
            <stop offset="0%" stop-color="#FFCEEB"></stop>
            <stop offset="59.1646635%" stop-color="#F39390"></stop>
            <stop offset="100%" stop-color="#D375A3"></stop>
        </linearGradient>
        <path id="path-9" d="M13.6306097,33.1427982 C16.3391593,26.6824771 17.6940205,20.7508428 17.6951933,15.3478953 C17.6963651,9.94494772 16.2506692,5.18812196 13.3581056,1.07741798 C9.93155768,5.34688973 8.21769738,10.1830994 8.2165247,15.5860469 C8.21535278,20.9889945 10.0200478,26.8412449 13.6306097,33.1427982 Z"></path>
        <linearGradient id="linearGradient-11" y2="100%" x2="50%" y1="0%" x1="50%">
            <stop offset="0%" stop-color="#FFCEEB"></stop>
            <stop offset="59.1646635%" stop-color="#F39390"></stop>
            <stop offset="100%" stop-color="#D375A3"></stop>
        </linearGradient>
        <path id="path-12" d="M21.8098877,36.7055926 C24.5248789,30.226925 25.8880038,24.2805405 25.8992625,18.8664393 C25.9104341,13.4523381 24.4765334,8.68836989 21.5975604,4.57453475 C18.1701206,8.85915999 16.4507756,13.7085232 16.4395256,19.1226245 C16.4283454,24.5367257 18.2184661,30.3977151 21.8098877,36.7055926 Z"></path>
        <linearGradient id="linearGradient-14" y2="100%" x2="50%" y1="0%" x1="50%">
            <stop offset="0%" stop-color="#EE8FC8"></stop>
            <stop offset="59.8503059%" stop-color="#F58986"></stop>
            <stop offset="100%" stop-color="#ECA2C6"></stop>
        </linearGradient>
        <path id="path-15" d="M24.2574565,40.9239659 C26.476787,34.439906 27.5912269,28.4878539 27.6007762,23.0678095 C27.6102488,17.6477652 26.4386476,12.8776487 24.0859725,8.75746001 C21.2845092,13.0446128 19.8790067,17.8982114 19.869465,23.3182557 C19.8599848,28.7383001 21.3226486,34.6068702 24.2574565,40.9239659 Z"></path>
        <linearGradient id="linearGradient-17" y2="100%" x2="50%" y1="0%" x1="50%">
            <stop offset="0%" stop-color="#FFEBF7"></stop>
            <stop offset="59.1646635%" stop-color="#F39390"></stop>
            <stop offset="100%" stop-color="#D375A3"></stop>
        </linearGradient>
        <path id="path-18" d="M8.41231243,36.0271228 C10.8684911,29.5683915 12.0946655,23.6372446 12.0908357,18.2336822 C12.0869939,12.8301197 10.7685556,8.07151001 8.13552065,3.95785313 C5.02470263,8.22486866 3.47120915,13.0601577 3.47504023,18.4637201 C3.47888075,23.8672826 5.12463815,29.7217502 8.41231243,36.0271228 Z"></path>
        <linearGradient id="linearGradient-20" y2="99.3963068%" x2="50%" y1="0%" x1="50%">
            <stop offset="0%" stop-color="#F6ADD9"></stop>
            <stop offset="59.8503059%" stop-color="#E17B78"></stop>
            <stop offset="100%" stop-color="#E18BB5"></stop>
        </linearGradient>
        <path id="path-21" d="M16.2454345,36.3084945 C18.9607076,30.1611306 20.3227744,24.5185498 20.3316348,19.380752 C20.3404414,14.2429542 18.9027796,9.72175191 16.0186496,5.81714507 C12.5891315,9.8822593 10.8699449,14.4837153 10.8610898,19.6215131 C10.8522779,24.7593108 12.6470595,30.321638 16.2454345,36.3084945 Z"></path>
        <path id="path-23" d="M14.4403754,32.9688514 C17.6476776,26.4993326 19.2556351,20.561127 19.264248,15.1542347 C19.2728177,9.74734244 17.5718452,4.98943837 14.1613305,0.88052254 C10.1090244,5.15878174 8.07856707,10.0013575 8.06995848,15.4082498 C8.0613845,20.8151421 10.1848568,26.668676 14.4403754,32.9688514 Z"></path>
        <path id="path-25" d="M10.0306097,33.1427982 C12.7391593,26.6824771 14.0940205,20.7508428 14.0951933,15.3478953 C14.0963651,9.94494772 12.6506692,5.18812196 9.7581056,1.07741798 C6.33155768,5.34688973 4.61769738,10.1830994 4.6165247,15.5860469 C4.61535278,20.9889945 6.42004777,26.8412449 10.0306097,33.1427982 Z"></path>
        <path id="path-27" d="M18.2098877,36.7055926 C20.9248789,30.226925 22.2880038,24.2805405 22.2992625,18.8664393 C22.3104341,13.4523381 20.8765334,8.68836989 17.9975604,4.57453475 C14.5701206,8.85915999 12.8507756,13.7085232 12.8395256,19.1226245 C12.8283454,24.5367257 14.6184661,30.3977151 18.2098877,36.7055926 Z"></path>
        <path id="path-29" d="M12.6454345,36.3084945 C15.3607076,30.1611306 16.7227744,24.5185498 16.7316348,19.380752 C16.7404414,14.2429542 15.3027796,9.72175191 12.4186496,5.81714507 C8.98913152,9.8822593 7.26994492,14.4837153 7.2610898,19.6215131 C7.25227794,24.7593108 9.04705951,30.321638 12.6454345,36.3084945 Z"></path>
        <linearGradient id="linearGradient-31" y2="100%" x2="50%" y1="0%" x1="50%">
            <stop offset="0%" stop-color="#76BE36"></stop>
            <stop offset="100%" stop-color="#B8C472"></stop>
        </linearGradient>
        <linearGradient id="linearGradient-32" y2="99.6230332%" x2="50%" y1="0%" x1="50%">
            <stop offset="0%" stop-color="#77B745"></stop>
            <stop offset="100%" stop-color="#A9CD7A"></stop>
        </linearGradient>
        <linearGradient id="linearGradient-33" y2="41.2320506%" x2="100%" y1="53.1658377%" x1="9.93359375%">
            <stop offset="0%" stop-color="#EFE6D0"></stop>
            <stop offset="73.8995445%" stop-color="#D3DBE1"></stop>
            <stop offset="100%" stop-color="#CFD5CB"></stop>
        </linearGradient>
        <linearGradient id="linearGradient-34" y2="100%" x2="50%" y1="0%" x1="50%">
            <stop offset="0%" stop-color="#E9D1E0"></stop>
            <stop offset="59.1646635%" stop-color="#F8BBB9"></stop>
            <stop offset="100%" stop-color="#F790C2"></stop>
        </linearGradient>
        <path id="path-35" d="M63.396126,79.9698947 C73.587321,64.9148544 78.6829186,51.091288 78.6829186,38.4991957 C78.6829186,25.9071034 73.2366388,14.8201319 62.3440793,5.23828125 C49.4480264,15.1869733 43,26.4573655 43,39.0494578 C43,51.6415501 49.7987087,65.2816957 63.396126,79.9698947 Z"></path>
        <linearGradient id="linearGradient-37" y2="100%" x2="50%" y1="0%" x1="50%">
            <stop offset="0%" stop-color="#FFCEEB"></stop>
            <stop offset="59.1646635%" stop-color="#F39390"></stop>
            <stop offset="100%" stop-color="#D375A3"></stop>
        </linearGradient>
        <path id="path-38" d="M46.552376,77.7316134 C56.743571,62.6765731 61.8391686,48.8530068 61.8391686,36.2609145 C61.8391686,23.6688222 56.3928888,12.5818507 45.5003293,3 C32.6042764,12.9486921 26.15625,24.2190842 26.15625,36.8111765 C26.15625,49.4032688 32.9549587,63.0434145 46.552376,77.7316134 Z"></path>
        <path id="path-40" d="M75.4488603,93.3136447 C85.6400554,78.2586044 90.7356529,64.435038 90.7356529,51.8429457 C90.7356529,39.2508534 85.2893732,28.1638819 74.3968137,18.5820312 C61.5007608,28.5307233 55.0527344,39.8011155 55.0527344,52.3932078 C55.0527344,64.9853001 61.851443,78.6254457 75.4488603,93.3136447 Z"></path>
        <linearGradient id="linearGradient-42" y2="100%" x2="50%" y1="0%" x1="50%">
            <stop offset="0%" stop-color="#FFF4B1"></stop>
            <stop offset="100%" stop-color="#FFE65E"></stop>
        </linearGradient>
        <linearGradient id="linearGradient-43" y2="100%" x2="50%" y1="0%" x1="50%">
            <stop offset="0%" stop-color="#EE8FC8"></stop>
            <stop offset="59.8503059%" stop-color="#F58986"></stop>
            <stop offset="100%" stop-color="#ECA2C6"></stop>
        </linearGradient>
        <path id="path-44" d="M73.0933916,105.393723 C83.2845867,90.3386825 88.3801842,76.5151162 88.3801842,63.9230239 C88.3801842,51.3309316 82.9339044,40.2439601 72.0413449,30.6621094 C59.1452921,40.6108014 52.6972656,51.8811936 52.6972656,64.4732859 C52.6972656,77.0653782 59.4959743,90.7055238 73.0933916,105.393723 Z"></path>
        <linearGradient id="linearGradient-46" y2="99.3963068%" x2="50%" y1="0%" x1="50%">
            <stop offset="0%" stop-color="#F6ADD9"></stop>
            <stop offset="59.8503059%" stop-color="#E17B78"></stop>
            <stop offset="100%" stop-color="#E18BB5"></stop>
        </linearGradient>
        <path id="path-47" d="M54.3851083,88.7010771 C63.2388417,74.3977881 67.6657084,61.2644813 67.6657084,49.3011566 C67.6657084,37.337832 62.9341819,26.8044721 53.4711291,17.7010771 C42.2675153,27.1529958 36.6657084,37.8606175 36.6657084,49.8239422 C36.6657084,61.7872668 42.572175,74.7463118 54.3851083,88.7010771 Z"></path>
        <path id="path-49" d="M29.396126,86.9698947 C39.587321,71.9148544 44.6829186,58.091288 44.6829186,45.4991957 C44.6829186,32.9071034 39.2366388,21.8201319 28.3440793,12.2382813 C15.4480264,22.1869733 9,33.4573655 9,46.0494578 C9,58.6415501 15.7987087,72.2816957 29.396126,86.9698947 Z"></path>
        <linearGradient id="linearGradient-51" y2="93.8790577%" x2="65.6832329%" y1="4.24819894%" x1="39.5463486%">
            <stop offset="0%" stop-opacity="0" stop-color="#00A300"></stop>
            <stop offset="100%" stop-color="#42667E"></stop>
        </linearGradient>
        <linearGradient id="linearGradient-52" y2="93.878759%" x2="65.6832329%" y1="4.24851033%" x1="39.5463486%">
            <stop offset="0%" stop-opacity="0" stop-color="#00A300"></stop>
            <stop offset="100%" stop-color="#42667E"></stop>
        </linearGradient>
    </defs>
    <g fill-rule="evenodd" fill="none" stroke-width="1" stroke="none" id="Page-1">
        <g transform="translate(-935.000000, -791.000000)" id="桌面端-HD">
            <g transform="translate(935.000000, 791.000000)" id="10">
                <ellipse ry="35.5" rx="100" cy="305.5" cx="152" fill="url(#linearGradient-1)" id="椭圆形"></ellipse>
                <ellipse ry="34.5" rx="91" cy="324.5" cx="152" fill="url(#linearGradient-2)" id="椭圆形备份"></ellipse>
                <path transform="translate(184.345868, 59.055466) scale(-1, 1) rotate(54.000000) translate(-184.345868, -59.055466)" fill="url(#linearGradient-3)" id="椭圆形备份-23" d="M190.49977,99.5374534 C199.706138,100.319118 211.845868,75.4964345 211.845868,57.0297118 C211.845868,38.5629891 212.059773,18.4524031 188.52345,18.5566679 C164.987127,18.6609326 156.845868,28.4994071 156.845868,46.9661298 C156.845868,65.4328524 181.293401,98.755789 190.49977,99.5374534 Z"></path>
                <path transform="translate(228.000000, 125.500000) scale(-1, 1) rotate(-23.000000) translate(-228.000000, -125.500000)" fill="url(#linearGradient-4)" id="椭圆形备份-22" d="M236.279796,179.975761 C248.666546,181.02763 265,147.624266 265,122.773985 C265,97.923704 265.2878,70.8613104 233.620747,71.0016173 C201.953695,71.1419242 191,84.3813528 191,109.231634 C191,134.081915 223.893045,178.923891 236.279796,179.975761 Z"></path>
                <g transform="translate(27.000000, 30.500000) rotate(-67.000000) translate(-27.000000, -30.500000) translate(7.000000, 12.000000)" id="编组-3备份">
                    <mask fill="white" id="mask-7">
                        <use xlink:href="#path-6"></use>
                    </mask>
                    <use xlink:href="#path-6" transform="translate(17.267103, 16.924687) rotate(25.000000) translate(-17.267103, -16.924687)" fill="url(#linearGradient-5)" id="蒙版备份-4"></use>
                    <mask fill="white" id="mask-10">
                        <use xlink:href="#path-9"></use>
                    </mask>
                    <use xlink:href="#path-9" transform="translate(12.955859, 17.110108) rotate(3.000000) translate(-12.955859, -17.110108)" fill="url(#linearGradient-8)" id="蒙版备份-3"></use>
                    <mask fill="white" id="mask-13">
                        <use xlink:href="#path-12"></use>
                    </mask>
                    <use xlink:href="#path-12" transform="translate(21.169394, 20.640064) rotate(45.000000) translate(-21.169394, -20.640064)" fill="url(#linearGradient-11)" id="蒙版备份-5"></use>
                    <mask fill="white" id="mask-16">
                        <use xlink:href="#path-15"></use>
                    </mask>
                    <use xlink:href="#path-15" transform="translate(23.735121, 24.840713) rotate(61.000000) translate(-23.735121, -24.840713)" fill="url(#linearGradient-14)" id="蒙版备份-2"></use>
                    <mask fill="white" id="mask-19">
                        <use xlink:href="#path-18"></use>
                    </mask>
                    <use xlink:href="#path-18" transform="translate(7.782938, 19.992488) rotate(-10.000000) translate(-7.782938, -19.992488)" fill="url(#linearGradient-17)" id="蒙版备份"></use>
                    <mask fill="white" id="mask-22">
                        <use xlink:href="#path-21"></use>
                    </mask>
                    <use xlink:href="#path-21" transform="translate(15.596362, 21.062820) rotate(28.000000) translate(-15.596362, -21.062820)" fill="url(#linearGradient-20)" id="蒙版"></use>
                </g>
                <g transform="translate(74.500000, 22.500000) rotate(-12.000000) translate(-74.500000, -22.500000) translate(58.000000, 4.000000)" id="编组-3备份-2">
                    <mask fill="white" id="mask-24">
                        <use xlink:href="#path-23"></use>
                    </mask>
                    <use xlink:href="#path-23" transform="translate(13.667103, 16.924687) rotate(25.000000) translate(-13.667103, -16.924687)" fill="url(#linearGradient-5)" id="蒙版备份-4"></use>
                    <mask fill="white" id="mask-26">
                        <use xlink:href="#path-25"></use>
                    </mask>
                    <use xlink:href="#path-25" transform="translate(9.355859, 17.110108) rotate(3.000000) translate(-9.355859, -17.110108)" fill="url(#linearGradient-8)" id="蒙版备份-3"></use>
                    <mask fill="white" id="mask-28">
                        <use xlink:href="#path-27"></use>
                    </mask>
                    <use xlink:href="#path-27" transform="translate(17.569394, 20.640064) rotate(45.000000) translate(-17.569394, -20.640064)" fill="url(#linearGradient-11)" id="蒙版备份-5"></use>
                    <mask fill="white" id="mask-30">
                        <use xlink:href="#path-29"></use>
                    </mask>
                    <use xlink:href="#path-29" transform="translate(11.996362, 21.062820) rotate(28.000000) translate(-11.996362, -21.062820)" fill="url(#linearGradient-20)" id="蒙版"></use>
                </g>
                <path transform="translate(81.000000, 95.000000) scale(-1, 1) rotate(44.000000) translate(-81.000000, -95.000000)" fill="url(#linearGradient-31)" id="椭圆形备份-24" d="M89.455526,165.972107 C101.873495,167.279019 124.855357,122.373356 124.855357,91.497738 C124.856003,77.1359539 125.832178,77.1858643 122.703895,65.3128809 C119.106853,51.6607834 105.468951,23.9072289 88.4891303,24 C56.7422656,24.174794 37,37.3676579 37,68.2432758 C37,99.1188937 77.0375568,164.665196 89.455526,165.972107 Z"></path>
                <path transform="translate(150.500000, 225.000000) rotate(-5.000000) translate(-150.500000, -225.000000)" fill="url(#linearGradient-32)" id="椭圆形" d="M152.933813,324.977712 C171.39249,323.629531 212,265.61 212,220.007645 C212,174.40529 212.592081,124.743522 147.465176,125 C82.3382706,125.258472 89.2085381,175.026428 89.2085381,220.628783 C89.2085381,266.231138 134.475135,326.325894 152.933813,324.977712 Z"></path>
                <path fill="url(#linearGradient-33)" id="路径" d="M252,312 L232,385 L231.987918,385.000382 C231.238418,400.509654 195.713632,413 152,413 C108.286368,413 72.7615818,400.509654 72.0120822,385.000382 L72,385 L52,312 L52.5973056,312 C57.4404198,326.089052 111.143524,337 152,337 C192.856476,337 246.55958,326.089052 251.402694,312 L252,312 Z"></path>
                <g transform="translate(214.566685, 0.261706)" id="编组-3">
                    <mask fill="white" id="mask-36">
                        <use xlink:href="#path-35"></use>
                    </mask>
                    <use xlink:href="#path-35" transform="translate(60.841459, 42.604088) rotate(25.000000) translate(-60.841459, -42.604088)" fill="url(#linearGradient-34)" id="蒙版备份-4"></use>
                    <mask fill="white" id="mask-39">
                        <use xlink:href="#path-38"></use>
                    </mask>
                    <use xlink:href="#path-38" transform="translate(43.997709, 40.365807) rotate(-11.000000) translate(-43.997709, -40.365807)" fill="url(#linearGradient-37)" id="蒙版备份-3"></use>
                    <mask fill="white" id="mask-41">
                        <use xlink:href="#path-40"></use>
                    </mask>
                    <use xlink:href="#path-40" transform="translate(72.894194, 55.947838) rotate(59.000000) translate(-72.894194, -55.947838)" fill="url(#linearGradient-37)" id="蒙版备份-5"></use>
                    <ellipse ry="14" rx="26.5" cy="43.2457239" cx="57.5865753" transform="translate(57.586575, 43.245724) rotate(26.000000) translate(-57.586575, -43.245724)" fill="url(#linearGradient-42)" id="椭圆形"></ellipse>
                    <mask fill="white" id="mask-45">
                        <use xlink:href="#path-44"></use>
                    </mask>
                    <use xlink:href="#path-44" transform="translate(70.538725, 68.027916) rotate(67.000000) translate(-70.538725, -68.027916)" fill="url(#linearGradient-43)" id="蒙版备份-2"></use>
                    <mask fill="white" id="mask-48">
                        <use xlink:href="#path-47"></use>
                    </mask>
                    <use xlink:href="#path-47" transform="translate(52.165708, 53.201077) rotate(28.000000) translate(-52.165708, -53.201077)" fill="url(#linearGradient-46)" id="蒙版"></use>
                    <mask fill="white" id="mask-50">
                        <use xlink:href="#path-49"></use>
                    </mask>
                    <use xlink:href="#path-49" transform="translate(26.841459, 49.604088) rotate(-14.000000) translate(-26.841459, -49.604088)" fill="url(#linearGradient-37)" id="蒙版备份"></use>
                </g>
                <g transform="translate(9.419319, 30.628794)" id="编组-4">
                    <path transform="translate(164.000000, 272.431137) rotate(40.000000) translate(-164.000000, -272.431137)" fill="url(#linearGradient-51)" id="形状结合备份-49" d="M162.513722,266.075574 C163.471223,267.872503 164.883572,271.458161 166.750769,276.832547 C168.663062,271.575939 170.104563,268.068148 171.07653,266.309089 C172.809112,263.173554 173.547097,263.742258 172.552517,267.446506 C172.014289,269.4511 170.714975,272.833084 168.654576,277.592459 C168.460698,278.040303 168.067589,278.934112 167.475248,280.273885 C167.451555,280.327517 167.421482,280.378096 167.385692,280.424539 C167.302021,280.533116 167.193848,280.61169 167.074938,280.658477 C166.796245,280.877253 166.405705,280.931129 166.065775,280.764697 C161.318772,278.440871 158.182144,276.65326 156.655892,275.401864 C154.206143,273.393281 154.522228,272.305652 157.288062,273.226606 C158.741452,273.710549 161.209514,275.026436 164.692247,277.174265 C162.751227,272.492807 161.528037,269.160381 161.023693,267.176999 C160.075767,263.449184 160.820778,262.898473 162.513722,266.075574 Z"></path>
                    <path transform="translate(114.000000, 242.431137) rotate(-5.000000) translate(-114.000000, -242.431137)" fill="url(#linearGradient-51)" id="形状结合备份-45" d="M112.513722,236.075574 C113.471223,237.872503 114.883572,241.458161 116.750769,246.832547 C118.663062,241.575939 120.104563,238.068148 121.07653,236.309089 C122.809112,233.173554 123.547097,233.742258 122.552517,237.446506 C122.014289,239.4511 120.714975,242.833084 118.654576,247.592459 C118.460698,248.040303 118.067589,248.934112 117.475248,250.273885 C117.451555,250.327517 117.421482,250.378096 117.385692,250.424539 C117.302021,250.533116 117.193848,250.61169 117.074938,250.658477 C116.796245,250.877253 116.405705,250.931129 116.065775,250.764697 C111.318772,248.440871 108.182144,246.65326 106.655892,245.401864 C104.206143,243.393281 104.522228,242.305652 107.288062,243.226606 C108.741452,243.710549 111.209514,245.026436 114.692247,247.174265 C112.751227,242.492807 111.528037,239.160381 111.023693,237.176999 C110.075767,233.449184 110.820778,232.898473 112.513722,236.075574 Z"></path>
                    <path transform="translate(88.000000, 22.431137) rotate(63.000000) translate(-88.000000, -22.431137)" fill="url(#linearGradient-51)" id="形状结合备份-41" d="M86.5137219,16.0755735 C87.4712231,17.8725035 88.883572,21.4581613 90.7507686,26.8325472 C92.6630622,21.5759387 94.1045633,18.0681479 95.0765305,16.3090889 C96.8091117,13.1735539 97.5470965,13.7422577 96.5525166,17.4465055 C96.0142889,19.4510997 94.7149754,22.8330842 92.6545761,27.5924589 C92.4606982,28.040303 92.0675889,28.9341117 91.4752484,30.273885 C91.4515549,30.3275173 91.4214817,30.3780963 91.3856922,30.4245389 C91.3020206,30.5331163 91.1938479,30.6116899 91.0749384,30.6584766 C90.7962452,30.8772531 90.405705,30.9311287 90.0657749,30.7646968 C85.3187722,28.4408708 82.1821445,26.6532599 80.6558919,25.4018641 C78.2061431,23.3932809 78.5222279,22.305652 81.2880615,23.2266062 C82.741452,23.7105494 85.2095138,25.0264356 88.6922468,27.1742649 C86.7512274,22.4928069 85.5280371,19.1603807 85.0236933,17.1769993 C84.0757666,13.4491842 84.8207784,12.8984727 86.5137219,16.0755735 Z"></path>
                    <path transform="translate(188.000000, 12.431137) rotate(63.000000) translate(-188.000000, -12.431137)" fill="url(#linearGradient-51)" id="形状结合备份-54" d="M186.513722,6.07557352 C187.471223,7.87250345 188.883572,11.4581613 190.750769,16.8325472 C192.663062,11.5759387 194.104563,8.06814785 195.07653,6.30908888 C196.809112,3.17355388 197.547097,3.74225766 196.552517,7.44650553 C196.014289,9.4510997 194.714975,12.8330842 192.654576,17.5924589 C192.460698,18.040303 192.067589,18.9341117 191.475248,20.273885 C191.451555,20.3275173 191.421482,20.3780963 191.385692,20.4245389 C191.302021,20.5331163 191.193848,20.6116899 191.074938,20.6584766 C190.796245,20.8772531 190.405705,20.9311287 190.065775,20.7646968 C185.318772,18.4408708 182.182144,16.6532599 180.655892,15.4018641 C178.206143,13.3932809 178.522228,12.305652 181.288062,13.2266062 C182.741452,13.7105494 185.209514,15.0264356 188.692247,17.1742649 C186.751227,12.4928069 185.528037,9.16038068 185.023693,7.17699928 C184.075767,3.44918423 184.820778,2.89847268 186.513722,6.07557352 Z"></path>
                    <path transform="translate(165.000000, 225.431137) rotate(41.000000) translate(-165.000000, -225.431137)" fill="url(#linearGradient-51)" id="形状结合备份-12" d="M163.513722,219.075574 C164.471223,220.872503 165.883572,224.458161 167.750769,229.832547 C169.663062,224.575939 171.104563,221.068148 172.07653,219.309089 C173.809112,216.173554 174.547097,216.742258 173.552517,220.446506 C173.014289,222.4511 171.714975,225.833084 169.654576,230.592459 C169.460698,231.040303 169.067589,231.934112 168.475248,233.273885 C168.451555,233.327517 168.421482,233.378096 168.385692,233.424539 C168.302021,233.533116 168.193848,233.61169 168.074938,233.658477 C167.796245,233.877253 167.405705,233.931129 167.065775,233.764697 C162.318772,231.440871 159.182144,229.65326 157.655892,228.401864 C155.206143,226.393281 155.522228,225.305652 158.288062,226.226606 C159.741452,226.710549 162.209514,228.026436 165.692247,230.174265 C163.751227,225.492807 162.528037,222.160381 162.023693,220.176999 C161.075767,216.449184 161.820778,215.898473 163.513722,219.075574 Z"></path>
                    <path transform="translate(154.000000, 103.431137) rotate(41.000000) translate(-154.000000, -103.431137)" fill="url(#linearGradient-51)" id="形状结合备份-44" d="M152.513722,97.0755735 C153.471223,98.8725035 154.883572,102.458161 156.750769,107.832547 C158.663062,102.575939 160.104563,99.0681479 161.07653,97.3090889 C162.809112,94.1735539 163.547097,94.7422577 162.552517,98.4465055 C162.014289,100.4511 160.714975,103.833084 158.654576,108.592459 C158.460698,109.040303 158.067589,109.934112 157.475248,111.273885 C157.451555,111.327517 157.421482,111.378096 157.385692,111.424539 C157.302021,111.533116 157.193848,111.61169 157.074938,111.658477 C156.796245,111.877253 156.405705,111.931129 156.065775,111.764697 C151.318772,109.440871 148.182144,107.65326 146.655892,106.401864 C144.206143,104.393281 144.522228,103.305652 147.288062,104.226606 C148.741452,104.710549 151.209514,106.026436 154.692247,108.174265 C152.751227,103.492807 151.528037,100.160381 151.023693,98.1769993 C150.075767,94.4491842 150.820778,93.8984727 152.513722,97.0755735 Z"></path>
                    <path transform="translate(47.000000, 30.431137) rotate(-16.000000) translate(-47.000000, -30.431137)" fill="url(#linearGradient-51)" id="形状结合备份-8" d="M45.5137219,24.0755735 C46.4712231,25.8725035 47.883572,29.4581613 49.7507686,34.8325472 C51.6630622,29.5759387 53.1045633,26.0681479 54.0765305,24.3090889 C55.8091117,21.1735539 56.5470965,21.7422577 55.5525166,25.4465055 C55.0142889,27.4510997 53.7149754,30.8330842 51.6545761,35.5924589 C51.4606982,36.040303 51.0675889,36.9341117 50.4752484,38.273885 C50.4515549,38.3275173 50.4214817,38.3780963 50.3856922,38.4245389 C50.3020206,38.5331163 50.1938479,38.6116899 50.0749384,38.6584766 C49.7962452,38.8772531 49.405705,38.9311287 49.0657749,38.7646968 C44.3187722,36.4408708 41.1821445,34.6532599 39.6558919,33.4018641 C37.2061431,31.3932809 37.5222279,30.305652 40.2880615,31.2266062 C41.741452,31.7105494 44.2095138,33.0264356 47.6922468,35.1742649 C45.7512274,30.4928069 44.5280371,27.1603807 44.0236933,25.1769993 C43.0757666,21.4491842 43.8207784,20.8984727 45.5137219,24.0755735 Z"></path>
                    <path transform="translate(245.000000, 91.431137) rotate(78.000000) translate(-245.000000, -91.431137)" fill="url(#linearGradient-51)" id="形状结合备份-4" d="M243.513722,85.0755735 C244.471223,86.8725035 245.883572,90.4581613 247.750769,95.8325472 C249.663062,90.5759387 251.104563,87.0681479 252.07653,85.3090889 C253.809112,82.1735539 254.547097,82.7422577 253.552517,86.4465055 C253.014289,88.4510997 251.714975,91.8330842 249.654576,96.5924589 C249.460698,97.040303 249.067589,97.9341117 248.475248,99.273885 C248.451555,99.3275173 248.421482,99.3780963 248.385692,99.4245389 C248.302021,99.5331163 248.193848,99.6116899 248.074938,99.6584766 C247.796245,99.8772531 247.405705,99.9311287 247.065775,99.7646968 C242.318772,97.4408708 239.182144,95.6532599 237.655892,94.4018641 C235.206143,92.3932809 235.522228,91.305652 238.288062,92.2266062 C239.741452,92.7105494 242.209514,94.0264356 245.692247,96.1742649 C243.751227,91.4928069 242.528037,88.1603807 242.023693,86.1769993 C241.075767,82.4491842 241.820778,81.8984727 243.513722,85.0755735 Z"></path>
                    <path transform="translate(191.000000, 76.431137) rotate(7.000000) translate(-191.000000, -76.431137)" fill="url(#linearGradient-51)" id="形状结合备份-51" d="M189.513722,70.0755735 C190.471223,71.8725035 191.883572,75.4581613 193.750769,80.8325472 C195.663062,75.5759387 197.104563,72.0681479 198.07653,70.3090889 C199.809112,67.1735539 200.547097,67.7422577 199.552517,71.4465055 C199.014289,73.4510997 197.714975,76.8330842 195.654576,81.5924589 C195.460698,82.040303 195.067589,82.9341117 194.475248,84.273885 C194.451555,84.3275173 194.421482,84.3780963 194.385692,84.4245389 C194.302021,84.5331163 194.193848,84.6116899 194.074938,84.6584766 C193.796245,84.8772531 193.405705,84.9311287 193.065775,84.7646968 C188.318772,82.4408708 185.182144,80.6532599 183.655892,79.4018641 C181.206143,77.3932809 181.522228,76.305652 184.288062,77.2266062 C185.741452,77.7105494 188.209514,79.0264356 191.692247,81.1742649 C189.751227,76.4928069 188.528037,73.1603807 188.023693,71.1769993 C187.075767,67.4491842 187.820778,66.8984727 189.513722,70.0755735 Z"></path>
                    <path transform="translate(75.999986, 197.431112) rotate(-48.000000) translate(-75.999986, -197.431112)" fill="url(#linearGradient-52)" id="形状结合备份-11" d="M74.513708,191.075577 C75.4712092,192.872507 76.8835581,196.458165 78.7507547,201.832551 C80.6630483,196.575942 82.1045494,193.068151 83.0765166,191.309092 C84.8090977,188.173557 85.5470826,188.742261 84.5525027,192.446509 C84.014275,194.451103 82.7149614,197.833088 80.6545622,202.592463 C80.4606842,203.040307 80.067575,203.934115 79.4752345,205.273889 C79.451541,205.327521 79.4214678,205.3781 79.3856783,205.424543 C79.3020067,205.53312 79.193834,205.611694 79.0749245,205.65848 C78.7962313,205.877257 78.4056911,205.931132 78.065761,205.7647 C73.3187583,203.440874 70.1821306,201.653263 68.655878,200.401868 C66.2061292,198.393285 66.522214,197.305656 69.2880476,198.22661 C70.7414381,198.710553 73.2094999,200.026439 76.6922329,202.174268 C74.7512135,197.492811 73.5280232,194.160384 73.0236794,192.177003 C72.0757527,188.449188 72.8207645,187.898476 74.513708,191.075577 Z"></path>
                    <path transform="translate(108.000000, 158.431137) rotate(-31.000000) translate(-108.000000, -158.431137)" fill="url(#linearGradient-51)" id="形状结合备份-16" d="M106.513722,152.075574 C107.471223,153.872503 108.883572,157.458161 110.750769,162.832547 C112.663062,157.575939 114.104563,154.068148 115.07653,152.309089 C116.809112,149.173554 117.547097,149.742258 116.552517,153.446506 C116.014289,155.4511 114.714975,158.833084 112.654576,163.592459 C112.460698,164.040303 112.067589,164.934112 111.475248,166.273885 C111.451555,166.327517 111.421482,166.378096 111.385692,166.424539 C111.302021,166.533116 111.193848,166.61169 111.074938,166.658477 C110.796245,166.877253 110.405705,166.931129 110.065775,166.764697 C105.318772,164.440871 102.182144,162.65326 100.655892,161.401864 C98.2061431,159.393281 98.5222279,158.305652 101.288062,159.226606 C102.741452,159.710549 105.209514,161.026436 108.692247,163.174265 C106.751227,158.492807 105.528037,155.160381 105.023693,153.176999 C104.075767,149.449184 104.820778,148.898473 106.513722,152.075574 Z"></path>
                    <path transform="translate(170.000000, 188.431137) rotate(99.000000) translate(-170.000000, -188.431137)" fill="url(#linearGradient-51)" id="形状结合备份-18" d="M168.513722,182.075574 C169.471223,183.872503 170.883572,187.458161 172.750769,192.832547 C174.663062,187.575939 176.104563,184.068148 177.07653,182.309089 C178.809112,179.173554 179.547097,179.742258 178.552517,183.446506 C178.014289,185.4511 176.714975,188.833084 174.654576,193.592459 C174.460698,194.040303 174.067589,194.934112 173.475248,196.273885 C173.451555,196.327517 173.421482,196.378096 173.385692,196.424539 C173.302021,196.533116 173.193848,196.61169 173.074938,196.658477 C172.796245,196.877253 172.405705,196.931129 172.065775,196.764697 C167.318772,194.440871 164.182144,192.65326 162.655892,191.401864 C160.206143,189.393281 160.522228,188.305652 163.288062,189.226606 C164.741452,189.710549 167.209514,191.026436 170.692247,193.174265 C168.751227,188.492807 167.528037,185.160381 167.023693,183.176999 C166.075767,179.449184 166.820778,178.898473 168.513722,182.075574 Z"></path>
                    <path transform="translate(221.000000, 137.431137) rotate(140.000000) translate(-221.000000, -137.431137)" fill="url(#linearGradient-51)" id="形状结合备份-19" d="M219.513722,131.075574 C220.471223,132.872503 221.883572,136.458161 223.750769,141.832547 C225.663062,136.575939 227.104563,133.068148 228.07653,131.309089 C229.809112,128.173554 230.547097,128.742258 229.552517,132.446506 C229.014289,134.4511 227.714975,137.833084 225.654576,142.592459 C225.460698,143.040303 225.067589,143.934112 224.475248,145.273885 C224.451555,145.327517 224.421482,145.378096 224.385692,145.424539 C224.302021,145.533116 224.193848,145.61169 224.074938,145.658477 C223.796245,145.877253 223.405705,145.931129 223.065775,145.764697 C218.318772,143.440871 215.182144,141.65326 213.655892,140.401864 C211.206143,138.393281 211.522228,137.305652 214.288062,138.226606 C215.741452,138.710549 218.209514,140.026436 221.692247,142.174265 C219.751227,137.492807 218.528037,134.160381 218.023693,132.176999 C217.075767,128.449184 217.820778,127.898473 219.513722,131.075574 Z"></path>
                    <path transform="translate(205.000000, 203.431137) rotate(99.000000) translate(-205.000000, -203.431137)" fill="url(#linearGradient-51)" id="形状结合备份-42" d="M203.513722,197.075574 C204.471223,198.872503 205.883572,202.458161 207.750769,207.832547 C209.663062,202.575939 211.104563,199.068148 212.07653,197.309089 C213.809112,194.173554 214.547097,194.742258 213.552517,198.446506 C213.014289,200.4511 211.714975,203.833084 209.654576,208.592459 C209.460698,209.040303 209.067589,209.934112 208.475248,211.273885 C208.451555,211.327517 208.421482,211.378096 208.385692,211.424539 C208.302021,211.533116 208.193848,211.61169 208.074938,211.658477 C207.796245,211.877253 207.405705,211.931129 207.065775,211.764697 C202.318772,209.440871 199.182144,207.65326 197.655892,206.401864 C195.206143,204.393281 195.522228,203.305652 198.288062,204.226606 C199.741452,204.710549 202.209514,206.026436 205.692247,208.174265 C203.751227,203.492807 202.528037,200.160381 202.023693,198.176999 C201.075767,194.449184 201.820778,193.898473 203.513722,197.075574 Z"></path>
                    <path transform="translate(152.000000, 248.431137) rotate(14.000000) translate(-152.000000, -248.431137)" fill="url(#linearGradient-51)" id="形状结合备份-13" d="M150.513722,242.075574 C151.471223,243.872503 152.883572,247.458161 154.750769,252.832547 C156.663062,247.575939 158.104563,244.068148 159.07653,242.309089 C160.809112,239.173554 161.547097,239.742258 160.552517,243.446506 C160.014289,245.4511 158.714975,248.833084 156.654576,253.592459 C156.460698,254.040303 156.067589,254.934112 155.475248,256.273885 C155.451555,256.327517 155.421482,256.378096 155.385692,256.424539 C155.302021,256.533116 155.193848,256.61169 155.074938,256.658477 C154.796245,256.877253 154.405705,256.931129 154.065775,256.764697 C149.318772,254.440871 146.182144,252.65326 144.655892,251.401864 C142.206143,249.393281 142.522228,248.305652 145.288062,249.226606 C146.741452,249.710549 149.209514,251.026436 152.692247,253.174265 C150.751227,248.492807 149.528037,245.160381 149.023693,243.176999 C148.075767,239.449184 148.820778,238.898473 150.513722,242.075574 Z"></path>
                    <path transform="translate(165.000000, 152.431137) rotate(41.000000) translate(-165.000000, -152.431137)" fill="url(#linearGradient-51)" id="形状结合备份-15" d="M163.513722,146.075574 C164.471223,147.872503 165.883572,151.458161 167.750769,156.832547 C169.663062,151.575939 171.104563,148.068148 172.07653,146.309089 C173.809112,143.173554 174.547097,143.742258 173.552517,147.446506 C173.014289,149.4511 171.714975,152.833084 169.654576,157.592459 C169.460698,158.040303 169.067589,158.934112 168.475248,160.273885 C168.451555,160.327517 168.421482,160.378096 168.385692,160.424539 C168.302021,160.533116 168.193848,160.61169 168.074938,160.658477 C167.796245,160.877253 167.405705,160.931129 167.065775,160.764697 C162.318772,158.440871 159.182144,156.65326 157.655892,155.401864 C155.206143,153.393281 155.522228,152.305652 158.288062,153.226606 C159.741452,153.710549 162.209514,155.026436 165.692247,157.174265 C163.751227,152.492807 162.528037,149.160381 162.023693,147.176999 C161.075767,143.449184 161.820778,142.898473 163.513722,146.075574 Z"></path>
                    <path transform="translate(125.000000, 198.431137) rotate(14.000000) translate(-125.000000, -198.431137)" fill="url(#linearGradient-51)" id="形状结合备份-14" d="M123.513722,192.075574 C124.471223,193.872503 125.883572,197.458161 127.750769,202.832547 C129.663062,197.575939 131.104563,194.068148 132.07653,192.309089 C133.809112,189.173554 134.547097,189.742258 133.552517,193.446506 C133.014289,195.4511 131.714975,198.833084 129.654576,203.592459 C129.460698,204.040303 129.067589,204.934112 128.475248,206.273885 C128.451555,206.327517 128.421482,206.378096 128.385692,206.424539 C128.302021,206.533116 128.193848,206.61169 128.074938,206.658477 C127.796245,206.877253 127.405705,206.931129 127.065775,206.764697 C122.318772,204.440871 119.182144,202.65326 117.655892,201.401864 C115.206143,199.393281 115.522228,198.305652 118.288062,199.226606 C119.741452,199.710549 122.209514,201.026436 125.692247,203.174265 C123.751227,198.492807 122.528037,195.160381 122.023693,193.176999 C121.075767,189.449184 121.820778,188.898473 123.513722,192.075574 Z"></path>
                    <path transform="translate(114.000000, 115.431137) rotate(-10.000000) translate(-114.000000, -115.431137)" fill="url(#linearGradient-51)" id="形状结合备份-17" d="M112.513722,109.075574 C113.471223,110.872503 114.883572,114.458161 116.750769,119.832547 C118.663062,114.575939 120.104563,111.068148 121.07653,109.309089 C122.809112,106.173554 123.547097,106.742258 122.552517,110.446506 C122.014289,112.4511 120.714975,115.833084 118.654576,120.592459 C118.460698,121.040303 118.067589,121.934112 117.475248,123.273885 C117.451555,123.327517 117.421482,123.378096 117.385692,123.424539 C117.302021,123.533116 117.193848,123.61169 117.074938,123.658477 C116.796245,123.877253 116.405705,123.931129 116.065775,123.764697 C111.318772,121.440871 108.182144,119.65326 106.655892,118.401864 C104.206143,116.393281 104.522228,115.305652 107.288062,116.226606 C108.741452,116.710549 111.209514,118.026436 114.692247,120.174265 C112.751227,115.492807 111.528037,112.160381 111.023693,110.176999 C110.075767,106.449184 110.820778,105.898473 112.513722,109.075574 Z"></path>
                    <path transform="translate(62.000000, 82.431137) rotate(-63.000000) translate(-62.000000, -82.431137)" fill="url(#linearGradient-51)" id="形状结合备份-10" d="M60.5137219,76.0755735 C61.4712231,77.8725035 62.883572,81.4581613 64.7507686,86.8325472 C66.6630622,81.5759387 68.1045633,78.0681479 69.0765305,76.3090889 C70.8091117,73.1735539 71.5470965,73.7422577 70.5525166,77.4465055 C70.0142889,79.4510997 68.7149754,82.8330842 66.6545761,87.5924589 C66.4606982,88.040303 66.0675889,88.9341117 65.4752484,90.273885 C65.4515549,90.3275173 65.4214817,90.3780963 65.3856922,90.4245389 C65.3020206,90.5331163 65.1938479,90.6116899 65.0749384,90.6584766 C64.7962452,90.8772531 64.405705,90.9311287 64.0657749,90.7646968 C59.3187722,88.4408708 56.1821445,86.6532599 54.6558919,85.4018641 C52.2061431,83.3932809 52.5222279,82.305652 55.2880615,83.2266062 C56.741452,83.7105494 59.2095138,85.0264356 62.6922468,87.1742649 C60.7512274,82.4928069 59.5280371,79.1603807 59.0236933,77.1769993 C58.0757666,73.4491842 58.8207784,72.8984727 60.5137219,76.0755735 Z"></path>
                    <path transform="translate(152.000000, 32.431137) rotate(-63.000000) translate(-152.000000, -32.431137)" fill="url(#linearGradient-51)" id="形状结合备份-55" d="M150.513722,26.0755735 C151.471223,27.8725035 152.883572,31.4581613 154.750769,36.8325472 C156.663062,31.5759387 158.104563,28.0681479 159.07653,26.3090889 C160.809112,23.1735539 161.547097,23.7422577 160.552517,27.4465055 C160.014289,29.4510997 158.714975,32.8330842 156.654576,37.5924589 C156.460698,38.040303 156.067589,38.9341117 155.475248,40.273885 C155.451555,40.3275173 155.421482,40.3780963 155.385692,40.4245389 C155.302021,40.5331163 155.193848,40.6116899 155.074938,40.6584766 C154.796245,40.8772531 154.405705,40.9311287 154.065775,40.7646968 C149.318772,38.4408708 146.182144,36.6532599 144.655892,35.4018641 C142.206143,33.3932809 142.522228,32.305652 145.288062,33.2266062 C146.741452,33.7105494 149.209514,35.0264356 152.692247,37.1742649 C150.751227,32.4928069 149.528037,29.1603807 149.023693,27.1769993 C148.075767,23.4491842 148.820778,22.8984727 150.513722,26.0755735 Z"></path>
                    <path transform="translate(12.000000, 58.431137) rotate(-65.000000) translate(-12.000000, -58.431137)" fill="url(#linearGradient-51)" id="形状结合备份-6" d="M10.5137219,52.0755735 C11.4712231,53.8725035 12.883572,57.4581613 14.7507686,62.8325472 C16.6630622,57.5759387 18.1045633,54.0681479 19.0765305,52.3090889 C20.8091117,49.1735539 21.5470965,49.7422577 20.5525166,53.4465055 C20.0142889,55.4510997 18.7149754,58.8330842 16.6545761,63.5924589 C16.4606982,64.040303 16.0675889,64.9341117 15.4752484,66.273885 C15.4515549,66.3275173 15.4214817,66.3780963 15.3856922,66.4245389 C15.3020206,66.5331163 15.1938479,66.6116899 15.0749384,66.6584766 C14.7962452,66.8772531 14.405705,66.9311287 14.0657749,66.7646968 C9.31877217,64.4408708 6.1821445,62.6532599 4.65589189,61.4018641 C2.20614309,59.3932809 2.52222791,58.305652 5.28806151,59.2266062 C6.74145203,59.7105494 9.20951379,61.0264356 12.6922468,63.1742649 C10.7512274,58.4928069 9.5280371,55.1603807 9.02369334,53.1769993 C8.0757666,49.4491842 8.82077838,48.8984727 10.5137219,52.0755735 Z"></path>
                    <path transform="translate(73.000000, 145.431137) rotate(-52.000000) translate(-73.000000, -145.431137)" fill="url(#linearGradient-51)" id="形状结合备份-9" d="M71.5137219,139.075574 C72.4712231,140.872503 73.883572,144.458161 75.7507686,149.832547 C77.6630622,144.575939 79.1045633,141.068148 80.0765305,139.309089 C81.8091117,136.173554 82.5470965,136.742258 81.5525166,140.446506 C81.0142889,142.4511 79.7149754,145.833084 77.6545761,150.592459 C77.4606982,151.040303 77.0675889,151.934112 76.4752484,153.273885 C76.4515549,153.327517 76.4214817,153.378096 76.3856922,153.424539 C76.3020206,153.533116 76.1938479,153.61169 76.0749384,153.658477 C75.7962452,153.877253 75.405705,153.931129 75.0657749,153.764697 C70.3187722,151.440871 67.1821445,149.65326 65.6558919,148.401864 C63.2061431,146.393281 63.5222279,145.305652 66.2880615,146.226606 C67.741452,146.710549 70.2095138,148.026436 73.6922468,150.174265 C71.7512274,145.492807 70.5280371,142.160381 70.0236933,140.176999 C69.0757666,136.449184 69.8207784,135.898473 71.5137219,139.075574 Z"></path>
                    <path transform="translate(32.000000, 93.431137) rotate(-104.000000) translate(-32.000000, -93.431137)" fill="url(#linearGradient-51)" id="形状结合备份-5" d="M30.5137219,87.0755735 C31.4712231,88.8725035 32.883572,92.4581613 34.7507686,97.8325472 C36.6630622,92.5759387 38.1045633,89.0681479 39.0765305,87.3090889 C40.8091117,84.1735539 41.5470965,84.7422577 40.5525166,88.4465055 C40.0142889,90.4510997 38.7149754,93.8330842 36.6545761,98.5924589 C36.4606982,99.040303 36.0675889,99.9341117 35.4752484,101.273885 C35.4515549,101.327517 35.4214817,101.378096 35.3856922,101.424539 C35.3020206,101.533116 35.1938479,101.61169 35.0749384,101.658477 C34.7962452,101.877253 34.405705,101.931129 34.0657749,101.764697 C29.3187722,99.4408708 26.1821445,97.6532599 24.6558919,96.4018641 C22.2061431,94.3932809 22.5222279,93.305652 25.2880615,94.2266062 C26.741452,94.7105494 29.2095138,96.0264356 32.6922468,98.1742649 C30.7512274,93.4928069 29.5280371,90.1603807 29.0236933,88.1769993 C28.0757666,84.4491842 28.8207784,83.8984727 30.5137219,87.0755735 Z"></path>
                </g>
            </g>
        </g>
    </g>
</svg>