<svg xmlns="http://www.w3.org/2000/svg" xml:space="preserve" width="255.975" height="251.146"><path d="M252.896 115.048c0-42.68-33.093-77.271-73.912-77.271-.636 0-1.262.031-1.894.049C164.203 15.18 140.573 0 113.541 0 72.72 0 39.628 34.6 39.628 77.28c0 .554.029 1.1.04 1.652-22.326 13.295-37.391 38.385-37.391 67.172 0 42.678 33.097 77.27 73.914 77.27 2.321 0 4.615-.123 6.887-.342 13.558 4.969 28.41 28.115 58.025 28.115 37.732 0 44.027-39.433 72.33-67.734 22.277-26.146 39.463-38.698 39.463-68.365" style="fill:#e3f2f7"/><path d="M214.225 57.646h-14a1.5 1.5 0 1 1 0-3h14a1.5 1.5 0 1 1 0 3M228.225 57.646h-4a1.5 1.5 0 1 1 0-3h4a1.5 1.5 0 1 1 0 3M238.26 66.646h-18.035a1.5 1.5 0 1 1 0-3h18.035a1.5 1.5 0 1 1 0 3M209.225 66.646h-5a1.5 1.5 0 1 1 0-3h5a1.5 1.5 0 1 1 0 3M32.225 134.146h-9a1.5 1.5 0 1 1 0-3h9a1.5 1.5 0 1 1 0 3M17.725 134.146h-5.5a1.5 1.5 0 1 1 0-3h5.5a1.5 1.5 0 1 1 0 3M24.975 126.896h-15.5a1.5 1.5 0 1 1 0-3h15.5a1.5 1.5 0 1 1 0 3M36.725 126.896h-4.5a1.5 1.5 0 1 1 0-3h4.5a1.5 1.5 0 1 1 0 3" style="fill:#fff"/><g style="opacity:.31"><path d="M103.037 202.171c-1.42-5.2.845-12.487 13.328-9.505 6.298 1.508 12.416 11.728 8.008 14.951" style="fill:#addcff"/><path d="M124.525 205.932a1.5 1.5 0 0 1-.735-2.809c.385-.216.724-.538.593-1.422-.4-2.708-4.548-6.946-8.639-7.85-7.304-1.611-9.919-.082-10.829.973-1.223 1.418-.684 3.327-.396 4.082a1.501 1.501 0 0 1-2.803 1.071c-1-2.62-.654-5.278.927-7.111 1.645-1.907 5.363-3.792 13.747-1.943 5.012 1.106 10.338 6.132 10.96 10.341.287 1.938-.477 3.57-2.094 4.478-.231.129-.483.19-.731.19" style="fill:#6e6e96"/><path d="M117.331 204.665c2.156-.959 4.478-1.551 6.31-1.718 10.922-1.021 14.688 7.988 12.077 15.428-1.92 5.465-9.163 9.198-14.62 7.076" style="fill:#addcff"/><path d="M121.161 211.527s6.242 5.244 6.437 8.791c0 0 12.817-7.906 2.313-14.974 0 0 6.09 2.26 4.743 10.99-1.35 8.733-8.809 8.025-8.809 8.025s-3.721-6.622-6.082-9.85z" style="opacity:.5;fill:#74b7e8"/><path d="M124.136 227.292c-1.358 0-2.673-.232-3.877-.7a1.5 1.5 0 0 1 1.088-2.796c2.081.81 4.679.63 7.127-.498 2.642-1.215 4.709-3.338 5.531-5.679 1.283-3.657.812-7.555-1.232-10.17-1.97-2.522-5.184-3.653-9.291-3.27-1.788.167-3.97.764-5.836 1.598-.755.335-1.643-.003-1.981-.759s.001-1.644.758-1.981c2.181-.974 4.653-1.646 6.781-1.844 5.106-.481 9.341 1.09 11.933 4.409 2.667 3.413 3.317 8.398 1.698 13.011-1.084 3.092-3.741 5.862-7.106 7.41-1.832.842-3.752 1.269-5.593 1.269" style="fill:#6e6e96"/><path d="M91.427 221.808c-6.604-2.792-12.402-10.683-7.775-17.062 2.788-3.84 10.191-10.896 17.722-7.146 2.065 1.026 3.881 3.97 4.732 7.523" style="fill:#addcff"/><path d="M117.461 214.429c4.438 4.214 7.278 9.628 7.234 12.637-.127 8.668-12.267 10.856-20.778 8.474-8.509-2.386-14.829-6.393-12.488-14.739.796-2.846 6.383-7.229 11.646-9.563" style="fill:#addcff"/><path d="M124.666 226.397c.044-3.01-2.794-8.425-7.234-12.637l-14.387-3.198c-5.263 2.34-10.851 6.722-11.648 9.564-2.339 8.348 3.979 12.356 12.49 14.741 8.513 2.391 20.653.195 20.779-8.47m-18.919 2.948c-5.941-1.664-9.968-3.935-8.333-9.761.276-.984 1.598-1.936 3.306-2.842 2.277 1.897 8.221 5.741 16.768 3.329 1.307 1.396 2.211 2.681 2.193 3.777-.089 6.052-7.993 7.164-13.934 5.497" style="opacity:.5;fill:#74b7e8"/><path d="M91.367 199.781s-9.37 6.175-2.408 12.844c0 0 4.055-4.312 11.71-4.057l.251 1.941s-7.853 5.215-10.656 8.943c.001.002-16.466-9.23 1.103-19.671" style="opacity:.5;fill:#74b7e8"/><path d="M91.126 223.048a1.5 1.5 0 0 1-.583-.118c-4.822-2.038-8.729-6.191-9.952-10.58-.87-3.123-.335-6.145 1.546-8.739 3.439-4.739 11.439-11.679 19.605-7.611 2.438 1.213 4.554 4.478 5.521 8.519a1.501 1.501 0 0 1-2.918.7c-.743-3.104-2.326-5.729-3.94-6.532-7.976-3.969-15.522 6.251-15.84 6.688-1.344 1.854-1.709 3.931-1.084 6.172.972 3.487 4.279 6.952 8.229 8.622a1.5 1.5 0 0 1 .798 1.966 1.5 1.5 0 0 1-1.382.913" style="fill:#6e6e96"/><path d="M91.126 222.043q-.202 0-.405-.056a1.5 1.5 0 0 1-1.041-1.849c.998-3.567 7.129-8.155 12.48-10.53a1.497 1.497 0 0 1 1.979.763 1.5 1.5 0 0 1-.763 1.979c-5.404 2.397-10.247 6.59-10.809 8.597a1.495 1.495 0 0 1-1.441 1.096M110.41 237.676c-2.577 0-5.087-.355-7.198-.946a1.5 1.5 0 0 1-1.04-1.849 1.497 1.497 0 0 1 1.849-1.04c5.782 1.62 12.557.864 16.11-1.791 1.801-1.346 2.73-3.117 2.762-5.264.013-.829.692-1.524 1.522-1.479a1.5 1.5 0 0 1 1.478 1.521c-.045 3.083-1.417 5.72-3.966 7.624-3.095 2.312-7.391 3.224-11.517 3.224M121.8 221.328c-.5 0-.988-.249-1.272-.704a28 28 0 0 0-4.4-5.364 1.5 1.5 0 1 1 2.067-2.176 31 31 0 0 1 4.875 5.948 1.499 1.499 0 0 1-1.27 2.296" style="fill:#6e6e96"/><path d="M112.978 201.088c4.743 1.155 7.721 5.663 6.65 10.066-1.072 4.405-5.442 5.626-10.187 4.473-4.741-1.153-8.063-4.247-6.993-8.649 1.071-4.406 5.786-7.042 10.53-5.89" style="fill:#fff"/><path d="M112.668 217.536c-1.143 0-2.348-.152-3.581-.451-6.103-1.485-9.28-5.591-8.096-10.462 1.045-4.301 5.052-7.306 9.745-7.306.868 0 1.742.105 2.596.312 5.54 1.35 9.018 6.679 7.754 11.879-.919 3.775-4.066 6.028-8.418 6.028m-1.932-15.219c-3.304 0-6.112 2.062-6.83 5.015-1.151 4.734 4.217 6.431 5.89 6.838 1.001.243 1.967.366 2.872.366 2.096 0 4.751-.648 5.503-3.736.874-3.594-1.615-7.297-5.548-8.255a8 8 0 0 0-1.887-.228" style="fill:#6e6e96"/><path d="M105.861 204.222s-2.139 5.089 3.354 6.604c5.496 1.512 9.068-3.421 7.118-6.084 0 0 4.324 3.201 1.158 7.5-3.164 4.299-13.268 3.63-13.891-2.418-.622-6.046 2.261-5.602 2.261-5.602" style="opacity:.15;fill:#6e6e96"/></g><g style="opacity:.31"><path d="M47.663 149.495c.619-9.414 8.518-20.174 27.465-8.118 9.554 6.083 13.843 26.465 4.715 29.288" style="fill:#ffdd5f"/><path d="M81.907 166.99a1.5 1.5 0 0 1-.265-2.975c.956-.173 2.275-.663 2.697-2.914.965-5.149-3.611-14.962-10.327-19.073-8.641-5.287-15.608-6.915-19.62-4.581-2.327 1.354-3.651 4.17-3.542 7.533a1.5 1.5 0 0 1-1.451 1.548 1.51 1.51 0 0 1-1.547-1.45c-.145-4.484 1.736-8.306 5.032-10.224 3.543-2.061 10.356-2.936 22.694 4.615 7.184 4.397 12.984 15.386 11.71 22.185-.549 2.93-2.365 4.816-5.113 5.313a1.6 1.6 0 0 1-.268.023" style="fill:#6e6e96"/><path d="M69.883 161.771c4.114-.359 8.289-.013 11.417.752 18.642 4.545 19.734 21.591 11.171 32.403-6.293 7.943-20.396 9.987-28.218 3.367" style="fill:#ffdd5f"/><path d="M72.301 175.303s7.334 12.231 5.635 18.213c0 0 25.701-5.771 12.361-23.444 0 0 8.783 7.207 1.575 20.878-7.208 13.673-19.144 8.25-19.144 8.25s-2.375-13.072-4.443-19.755z" style="fill:#ffca5f"/><path d="M75.697 203.161c-4.904 0-9.459-1.522-12.762-4.318a1.5 1.5 0 1 1 1.938-2.289c3.217 2.723 7.921 4.003 12.918 3.502 5.357-.533 10.274-3.021 13.154-6.657 4.443-5.613 5.954-12.734 3.943-18.584-1.95-5.674-6.895-9.627-14.299-11.433-3.151-.769-7.237-1.034-10.927-.713a1.5 1.5 0 1 1-.261-2.988c4.059-.354 8.396-.068 11.899.787 8.326 2.029 14.159 6.778 16.425 13.371 2.339 6.807.642 15.016-4.429 21.422-3.375 4.26-9.06 7.168-15.209 7.78q-1.203.12-2.39.12" style="fill:#6e6e96"/><path d="M17.261 175.349c-9.326-8.382-14.417-24.736-3.131-32.646 6.801-4.762 23.068-12.214 33.387-1.719 2.831 2.877 4.154 8.774 3.532 15.145" style="fill:#ffdd5f"/><path d="M64.526 177.994c4.94 9.501 6.549 20.078 4.761 25.023-5.15 14.267-26.48 10.968-39.199 2.166-12.716-8.802-20.88-19.031-12.25-31.501 2.941-4.252 14.679-8.317 24.715-9.177" style="fill:#ffdd5f"/><path d="M69.621 201.892c1.788-4.95.177-15.524-4.762-25.023L42.887 163.38c-10.037.86-21.775 4.929-24.716 9.178-8.63 12.472-.468 22.7 12.25 31.504 12.717 8.798 34.047 12.095 39.2-2.17m-32.976-5.908c-8.875-6.144-14.234-12.19-8.212-20.896 1.022-1.471 3.743-2.286 7.086-2.812 2.687 4.435 10.324 14.183 25.835 15.063 1.364 3.056 2.122 5.693 1.474 7.499-3.599 9.956-17.306 7.29-26.183 1.146" style="fill:#ffca5f"/><path d="M29.725 138.885s-19.019 4.871-11.307 19.871c0 0 9.167-4.813 21.683-.031l-.692 3.354s-15.962 4.146-22.725 8.715c0 .001-21.971-24.659 13.041-31.909" style="fill:#ffca5f"/><path d="M16.913 176.252c-.357 0-.715-.127-1.002-.384-6.469-5.812-10.509-14.764-10.054-22.274.321-5.305 2.764-9.701 7.064-12.714 8.099-5.675 24.652-12.388 35.316-1.544 3.113 3.164 4.629 9.427 3.957 16.343a1.5 1.5 0 1 1-2.986-.291c.58-5.964-.641-11.438-3.109-13.948-11.594-11.791-30.649 1.334-31.456 1.897-3.575 2.505-5.523 6.017-5.792 10.438-.402 6.646 3.241 14.627 9.065 19.86a1.5 1.5 0 0 1-1.003 2.617" style="fill:#6e6e96"/><path d="M17.486 174.586a1.5 1.5 0 0 1-1.232-2.354c3.453-4.991 16.092-8.982 25.821-9.818.817-.081 1.552.54 1.623 1.366a1.5 1.5 0 0 1-1.366 1.622c-10.027.862-21.061 4.851-23.611 8.537a1.5 1.5 0 0 1-1.235.647M52.722 213.642c-3.298.001-6.697-.524-9.898-1.396a1.5 1.5 0 0 1 .788-2.895c9.344 2.544 20.53 1.923 23.911-7.444 1.553-4.295.228-14.38-4.679-23.822a1.5 1.5 0 1 1 2.662-1.382c4.814 9.265 6.895 20.539 4.838 26.225-2.847 7.886-9.964 10.714-17.622 10.714" style="fill:#6e6e96"/><path d="M64.72 153.372c7.187 4.617 9.542 13.77 5.256 20.44-4.282 6.677-12.205 6.2-19.394 1.588s-10.917-11.62-6.636-18.292c4.287-6.68 13.587-8.348 20.774-3.736" style="fill:#fff"/><path d="M60.859 180.35c-3.493 0-7.327-1.275-11.086-3.688-3.979-2.553-6.813-5.688-8.197-9.067-1.565-3.821-1.182-7.728 1.109-11.298 2.826-4.403 7.788-7.032 13.274-7.032 3.363 0 6.672.983 9.572 2.844 3.796 2.439 6.485 6.11 7.573 10.339 1.098 4.271.436 8.594-1.865 12.175-2.404 3.746-5.993 5.727-10.38 5.727m-4.901-28.085c-4.459 0-8.478 2.113-10.75 5.653-1.764 2.749-2.053 5.622-.858 8.539 1.15 2.807 3.584 5.462 7.042 7.68 3.275 2.102 6.549 3.213 9.466 3.213 3.362 0 6.004-1.463 7.854-4.348 1.845-2.872 2.372-6.354 1.484-9.808-.898-3.492-3.132-6.533-6.289-8.562-2.412-1.547-5.162-2.367-7.949-2.367" style="fill:#6e6e96"/><path d="M51.163 154.499s-6.439 7.194 1.781 12.834c8.222 5.635 16.945-.485 15.239-6.003 0 0 5.33 7.758-2.355 13.068-7.689 5.304-24.014-1.567-21.595-11.923 2.415-10.355 6.93-7.976 6.93-7.976" style="opacity:.15;fill:#6e6e96"/></g><path d="M56.38 145.812s17.5 31.529 55.097 16.983l-9.928-14.602z" style="opacity:.2;fill:#6e6e96"/><path d="M202.159 116.832s8.856 7.353 8.856 13.443c0 0-6.805-4.691-8.328 0z" style="fill:#c2944d"/><path d="m212.516 133.122-2.35-1.61c-.739-.507-3.013-1.821-4.643-1.821-.779 0-1.161.284-1.409 1.048l-2.926-.404-.66-16.806 2.589 2.149c.384.319 9.398 7.88 9.398 14.598zm-6.992-6.432c1.128 0 2.3.329 3.328.743-1.055-2.484-3.182-5.074-5.05-7.006l.254 6.471q.675-.208 1.468-.208" style="fill:#6e6e96"/><path d="M165.488 138.344s3.32 10.155 12.39 17.146l.053.048s.025.015.062.041c.586.447 1.194.886 1.832 1.302 2.967 2.328 8.184 7.46 6.364 13.699-2.489 8.562 15.578 4.501 13.095-9.133-2.484-13.631-17.281-9.667-17.281-9.667-2.896-2.922-5.646-6.809-6.967-11.733" style="fill:#f2cd5e"/><path d="M189.47 176.57c-1.314.001-2.496-.337-3.395-1.023-.885-.676-2.232-2.272-1.328-5.385 1.542-5.286-2.946-9.811-5.8-12.061a31 31 0 0 1-1.818-1.293l-.21-.162c-9.296-7.188-12.716-17.403-12.857-17.836l2.851-.934c.032.098 3.308 9.818 11.881 16.426l.07.058.012.008c.644.49 1.213.896 1.768 1.258l.106.076c3.446 2.704 8.923 8.288 6.879 15.299-.31 1.062-.219 1.79.268 2.161.899.688 3.204.557 5.503-.85 1.338-.819 5.608-4.004 4.408-10.596-.612-3.356-2.096-5.802-4.411-7.268-4.573-2.896-10.943-1.237-11.007-1.219l-.841.225-.612-.618c-3.662-3.695-6.135-7.867-7.351-12.4l2.898-.777c1.015 3.787 3.037 7.308 6.014 10.477 2.177-.419 7.908-1.131 12.503 1.778 3.053 1.933 4.989 5.05 5.758 9.266 1.041 5.715-1.125 10.833-5.793 13.691-1.838 1.125-3.78 1.699-5.496 1.699" style="fill:#6e6e96"/><path d="M203.681 126.023c0 22.149-25.779 47.55-57.576 47.55s-57.575-25.399-57.575-47.55 25.777-40.106 57.575-40.106c31.797 0 57.576 17.956 57.576 40.106" style="fill:#ffd863"/><path d="M146.105 175.073c-33.27 0-59.075-26.367-59.075-49.05 0-22.942 26.501-41.606 59.075-41.606 32.575 0 59.076 18.665 59.076 41.606 0 22.683-25.806 49.05-59.076 49.05m0-87.656c-30.92 0-56.075 17.319-56.075 38.606 0 10.421 6.113 21.991 16.352 30.952 11.124 9.736 25.231 15.098 39.724 15.098s28.6-5.361 39.724-15.098c10.239-8.961 16.353-20.532 16.353-30.952-.002-21.287-25.157-38.606-56.078-38.606" style="fill:#6e6e96"/><path d="M180.605 123.48c0-11.906-5.114-31.954-13.653-34.853a77.7 77.7 0 0 0-12.777-2.315c10.666 4.001 17.752 24.056 17.752 37.168 0 15.458-8.652 41.839-28.941 50.011 0 0-2.356-.171-6.563-.71 3.152.515 6.385.792 9.688.792 1.978 0 3.931-.099 5.855-.287 14.16-3.141 28.639-29.275 28.639-49.806m-21.268-.142c0-13.909-5.859-35.459-16.601-37.35a80.5 80.5 0 0 0-12.733 1.521c1.149.819-1.383-.253 0 0 13.535 2.489 20.029 23.318 20.029 35.829 0 18.852-9.267 37.119-28.781 44.77 3.623 1.95 6.156 2.422 10.228 3.659 18.495-10.127 27.858-28.494 27.858-48.429m32.727-21.472c-3.905-3.601-8.664-6.725-14.063-9.235 6.562 4.499 12.008 22.867 12.008 33.108 0 15.453-6.664 33.961-20.488 43.106 0 0-7.115 2.471-15.881 4.246 9.924-1.256 19.055-4.93 26.726-10.05 13.522-10.049 17.504-23.012 17.504-38.749-.004-9.415-1.379-15.85-5.806-22.426" style="fill:#6e6e96"/><path d="M197.339 107.732c1.27 2.78 1.959 5.703 1.959 8.724 0 18.273-24.797 39.229-55.383 39.229-28.138 0-51.354-17.729-54.897-34.794a28 28 0 0 0-.485 5.132c0 22.149 25.774 47.55 57.574 47.55s57.576-25.399 57.576-47.55c-.002-6.59-2.301-12.804-6.344-18.291" style="opacity:.21;fill:#6e6e96"/><path d="M170.831 102.949c-11.472 7.382-38.357-4.006-49.261-20.954-10.905-16.949-10.446-36.671 1.026-44.054 11.472-7.382 29.611.372 40.518 17.32 10.909 16.95 19.192 40.306 7.717 47.688" style="fill:#b7dbe3"/><path d="M169.845 101.413c-3.316 2.134-8.531 2.572-14.691 1.237-12.401-2.69-25.579-11.591-32.047-21.644-6.308-9.801-8.914-20.991-6.976-29.938 1.122-5.169 3.7-9.177 7.454-11.593 3.753-2.415 8.469-3.1 13.637-1.979 8.945 1.941 18.051 8.951 24.357 18.752 7.215 11.213 14.83 28.038 12.551 38.556-.652 3.014-2.055 5.175-4.285 6.609m-5.193-47.138c-6.819-10.598-16.782-18.203-26.653-20.344-6.138-1.332-11.805-.477-16.391 2.475s-7.714 7.754-9.042 13.89c-2.143 9.871.65 22.091 7.471 32.688 6.947 10.801 21.073 20.354 34.345 23.234 7.215 1.565 13.246.966 17.44-1.733 3.044-1.959 5.021-4.955 5.878-8.905 2.514-11.596-5.093-28.94-13.048-41.305" style="fill:#6e6e96"/><path d="M151.046 98.839c9.514 9.775 36.674 6.304 51.113-7.755s18.432-33.38 8.918-43.153c-9.519-9.776-28.939-6.303-43.379 7.755-14.443 14.057-26.167 33.377-16.652 43.153" style="fill:#b7dbe3"/><path d="M205.865 53.457c-2.88-2.958-6.793-4.533-11.205-4.822 2.043 5.343 3.225 11.584 3.225 18.259 0 15.377-6.24 28.479-14.984 33.491 5.619-1.965 10.982-5.005 15.144-9.054 12.669-12.338 16.171-29.295 7.82-37.874" style="fill:#dcf2f7"/><path d="M149.736 100.113c4.935 5.064 14.384 7.157 25.279 5.594 10.986-1.577 21.346-6.43 28.418-13.313 15.139-14.739 19.152-35.257 8.951-45.736-10.203-10.48-30.822-7.016-45.961 7.721-14.496 14.111-27.564 34.557-16.687 45.734m19.234-43.121c13.697-13.333 31.998-16.827 40.797-7.789 8.799 9.036 4.814 27.237-8.881 40.571-14.291 13.914-40.285 16.261-48.533 7.791-8.375-8.606 2.742-27.064 16.617-40.573" style="fill:#6e6e96"/><path d="M146.55 159.597s3.988 12.195 14.879 20.592c.023.02.041.039.063.059l.075.048a43 43 0 0 0 2.197 1.567c3.563 2.789 9.828 8.951 7.646 16.447-2.992 10.282 18.711 5.4 15.723-10.97-2.984-16.371-20.75-11.604-20.75-11.604-3.479-3.519-6.787-8.186-8.369-14.097 0 0 .008-4.013-5.104-6.203-6.688-2.863-6.36 4.161-6.36 4.161s-.644-.642 0 0c.646.645 1.064 1.869 1.064 1.869" style="fill:#ffd863"/><path d="M175.338 205.18c-1.516 0-2.872-.378-3.881-1.147-1-.764-2.523-2.578-1.486-6.142 1.903-6.538-3.6-12.073-7.085-14.812a43 43 0 0 1-2.176-1.552l-.245-.188c-10.188-7.879-14.46-18.798-15.22-20.926l-.041-.042.02-.02q-.082-.231-.1-.29l.578-.188.248-.249-.898.042c-.019-.397-.111-3.929 2.318-5.614 1.551-1.076 3.615-1.072 6.132.005 5.27 2.259 5.922 6.301 6.002 7.342 1.253 4.577 3.73 8.841 7.371 12.688 2.441-.489 9.404-1.453 14.954 2.058 3.592 2.272 5.873 5.949 6.78 10.927 1.229 6.733-1.318 12.764-6.813 16.13-2.134 1.307-4.437 1.978-6.458 1.978m-12.907-26.109.044.03a41 41 0 0 0 2.119 1.512l.096.068c4.08 3.194 10.566 9.785 8.162 18.048-.41 1.408-.267 2.39.427 2.919 1.161.888 4.079.754 6.95-1.005 1.647-1.009 6.908-4.932 5.43-13.033-.75-4.113-2.573-7.114-5.42-8.921-5.572-3.538-13.389-1.522-13.468-1.503l-.84.223-.613-.617c-4.367-4.416-7.312-9.384-8.752-14.764l-.051-.191v-.199c-.003-.105-.129-3.079-4.194-4.821-1.032-.441-2.431-.854-3.236-.301-.736.506-.973 1.772-1.025 2.553.572.79.903 1.703.975 1.913l-.29.099c1.591 3.694 5.766 11.88 13.602 17.922z" style="fill:#6e6e96"/><path d="M146.55 159.597s3.988 12.195 14.879 20.592c.023.02.041.039.063.059l.075.048a43 43 0 0 0 2.197 1.567c3.563 2.789 9.828 8.951 7.646 16.447-1.103 3.783 1.141 5.51 4.264 5.366q.104-.004.207-.017c.166-.012.328-.023.498-.048.106-.012.221-.031.334-.048q.189-.034.375-.067.216-.043.432-.099c.088-.022.179-.049.265-.072q.268-.073.541-.162l.073-.022c4.943-1.656 10.32-7.1 8.734-15.801-.959-5.255-3.439-8.323-6.369-10.081.953 1.562 1.701 3.475 2.133 5.843.535 2.938.275 5.503-.489 7.676-.023.051-.045.097-.06.154q-.264.724-.602 1.387c-1.91 3.014-7.289 5.488-7.289 3.106 0-2.738-.609-12.407-13.027-17.647-8.049-3.399-9.158-14.741-9.818-17.28.001.002-5.062-2.951-5.062-.901" style="opacity:.21;fill:#6e6e96"/><path d="M171.007 102.047c-9.92 6.385-33.172-3.464-42.601-18.121-9.433-14.656-9.034-31.712.888-38.096s25.608.322 35.039 14.979 16.596 34.854 6.674 41.238" style="fill:#dcf2f7"/><ellipse cx="164.712" cy="65.864" rx="27.393" ry="38.039" style="fill:#b7dbe3"/><path d="M164.712 29.651c14.098 0 25.563 16.246 25.563 36.213s-11.467 36.213-25.563 36.213-25.566-16.245-25.566-36.213c0-19.967 11.469-36.213 25.566-36.213m-29.219 36.214c0 21.98 13.104 39.865 29.219 39.865 16.108 0 29.217-17.883 29.217-39.865 0-10.541-2.973-20.472-8.369-27.965-5.522-7.673-12.928-11.9-20.848-11.9-16.111 0-29.219 17.883-29.219 39.865" style="fill:#6e6e96"/><ellipse cx="167.228" cy="68.485" rx="21.508" ry="32.704" style="fill:#dcf2f7"/><path d="M159.116 118.443s3.131 20.232-2 35.926l-9.232 1.196zM179.609 113.057s5.031 17.129 0 32.273l-4.586 2.685z" style="opacity:.21;fill:#6e6e96"/><path d="M87.065 74.849c-.387 0-.773-.148-1.066-.445-.18-.182-17.769-18.408-1.733-40.092a1.5 1.5 0 0 1 2.412 1.784c-6.102 8.251-7.711 16.844-4.784 25.541 2.195 6.519 6.198 10.618 6.238 10.658a1.5 1.5 0 0 1-1.067 2.554" style="fill:#6e6e96"/><circle cx="86.122" cy="35.858" r="7.388" style="fill:#eda862"/><path d="M86.122 44.746c-4.901 0-8.889-3.987-8.889-8.888s3.987-8.889 8.889-8.889 8.888 3.987 8.888 8.889-3.987 8.888-8.888 8.888m0-14.777a5.896 5.896 0 0 0-5.889 5.889 5.895 5.895 0 0 0 5.889 5.888 5.894 5.894 0 0 0 5.888-5.888 5.895 5.895 0 0 0-5.888-5.889M62.961 90.584a1.5 1.5 0 0 1-1.065-.445c-.2-.202-19.762-20.47-1.923-44.593a1.499 1.499 0 1 1 2.412 1.784c-16.289 22.028.905 39.949 1.645 40.701a1.501 1.501 0 0 1-1.069 2.553" style="fill:#6e6e96"/><circle cx="60.327" cy="46.314" r="6.678" style="fill:#eda862"/><path d="M60.327 54.492c-4.51 0-8.179-3.668-8.179-8.178s3.669-8.179 8.179-8.179 8.178 3.669 8.178 8.179-3.668 8.178-8.178 8.178m0-13.357a5.185 5.185 0 0 0-5.179 5.179 5.184 5.184 0 0 0 5.179 5.178 5.184 5.184 0 0 0 5.178-5.178 5.185 5.185 0 0 0-5.178-5.179" style="fill:#6e6e96"/><path d="M134.616 95.792c-10.828-21.564-34.462-32.233-54.424-23.928-20.086 8.356-29.161 32.893-21.239 55.897-4.168 4.166-3.365 11.397-.889 17.352 7.149 17.181 32.706 20.428 56.916 10.353 24.208-10.072 41.136-35.024 33.989-52.208-2.503-6.014-8.271-8.815-14.353-7.466" style="fill:#ffd863"/><ellipse cx="85.715" cy="109.168" rx="5.773" ry="4.135" style="fill:#6e6e96" transform="rotate(68.77 85.718 109.172)"/><ellipse cx="106.505" cy="99.557" rx="5.126" ry="3.812" style="fill:#6e6e96" transform="rotate(64.076 106.501 99.552)"/><path d="M93.335 117.696c1.731-6.532 8.765-13.865 18.706-18.653 13.706-6.599 29.966-8.08 33.582-.57" style="fill:#ffd863"/><path d="M105.862 113.097c5.811-10.516-22.651-3.245-38.428 11.977 0 .003 25.486 11.456 38.428-11.977" style="fill:#ffd863"/><path d="M148.726 103.499c-2.504-6.011-8.272-8.812-14.354-7.466-10.826-21.564-34.459-32.232-54.422-23.926-20.086 8.357-29.162 32.894-21.241 55.897-4.167 4.167-3.365 11.396-.889 17.351 7.15 17.184 32.706 20.428 56.916 10.353 24.212-10.076 41.138-35.027 33.99-52.209m-36.542 41.278c-20.858 8.68-42.879 5.885-49.04-8.922-2.134-5.128-2.825-11.358.767-14.949-6.825-19.822.994-40.962 18.302-48.162 17.198-7.157 41.213 5.688 50.543 24.268 5.242-1.16 10.209 1.254 12.367 6.434 6.158 14.804-12.079 32.649-32.939 41.331" style="opacity:.34;fill:#c2944d"/><path d="M136.249 94.97c-11.277-22.453-36.208-33.345-56.757-24.794-20.746 8.634-30.525 34.188-22.266 58.179l.437-1.886c-4.126 4.124-4.606 11.354-1.283 19.343 2.626 6.311 7.729 11.178 14.759 14.078 11.939 4.923 28.59 3.896 44.542-2.739 25.739-10.71 42.409-36.731 34.973-54.596-2.776-6.676-9.379-10.11-16.43-8.548zm11.032 8.989c6.581 15.813-9.457 40.024-33.002 49.82-15.078 6.274-30.685 7.299-41.75 2.733-6.2-2.559-10.501-6.629-12.777-12.104-2.111-5.074-3.091-11.772.494-15.355l.807-.806-.372-1.08c-7.634-22.172 1.245-45.724 20.216-53.617 18.789-7.818 41.668 2.312 52.088 23.062l.64 1.271 1.389-.308c5.347-1.188 10.163 1.319 12.267 6.384" style="fill:#6e6e96"/><path d="M98.428 136.549c-2.173 0-3.564-.258-3.672-.279a1.5 1.5 0 0 1-1.19-1.755 1.503 1.503 0 0 1 1.753-1.191c.72.137 17.754 3.095 26.104-15.689a1.5 1.5 0 1 1 2.741 1.219c-4.867 10.947-12.587 15.109-18.206 16.672a28.3 28.3 0 0 1-7.53 1.023" style="fill:#6e6e96"/><path d="M96.448 119.592c.736 1.295-2.472 2.773-6.247 4.918s-6.683 4.146-7.419 2.851c-.738-1.296.979-5.397 4.752-7.544 3.774-2.144 8.177-1.521 8.914-.225M119.142 106.193c.717 1.305-2.509 2.74-6.31 4.837s-6.734 4.061-7.457 2.755c-.721-1.305 1.051-5.384 4.851-7.481 3.801-2.097 8.195-1.417 8.916-.111" style="opacity:.35;fill:#fff"/><path d="M145.273 133.046s-19.629 20.902-12.436 21.713l-8.472-1.989z" style="opacity:.21;fill:#6e6e96"/><ellipse cx="231.173" cy="163.401" rx="5.964" ry="9.776" style="fill:#eeffe2" transform="rotate(-49.217 231.188 163.4)"/><path d="M234.974 172.722c-2.811 0-5.973-1.338-8.676-3.67-4.788-4.13-6.397-9.849-3.663-13.018 1.104-1.28 2.741-1.956 4.736-1.956 2.811 0 5.973 1.337 8.677 3.67 4.788 4.13 6.396 9.848 3.663 13.017-1.103 1.281-2.742 1.957-4.737 1.957m-7.603-15.643c-.764 0-1.812.158-2.465.915-1.379 1.6-.342 5.602 3.351 8.787 2.135 1.842 4.646 2.941 6.717 2.941.765 0 1.812-.159 2.466-.916 1.379-1.599.342-5.601-3.351-8.786-2.136-1.842-4.646-2.941-6.718-2.941" style="fill:#ccccde"/><ellipse cx="27.661" cy="89.248" rx="5.964" ry="9.776" style="fill:#ffe4e2" transform="rotate(-49.217 27.661 89.246)"/><path d="M31.463 98.57c-2.811 0-5.973-1.338-8.677-3.67-2.183-1.883-3.796-4.196-4.542-6.514-.829-2.576-.517-4.885.879-6.503 1.104-1.28 2.742-1.956 4.737-1.956 2.811 0 5.973 1.338 8.677 3.67 4.788 4.13 6.396 9.848 3.663 13.017-1.105 1.279-2.743 1.956-4.737 1.956M23.86 82.926c-.764 0-1.812.159-2.465.916-.925 1.073-.582 2.732-.294 3.625.571 1.774 1.899 3.655 3.645 5.161 2.135 1.842 4.646 2.942 6.717 2.942.764 0 1.812-.159 2.465-.916 1.379-1.599.342-5.601-3.351-8.786-2.135-1.842-4.646-2.942-6.717-2.942" style="fill:#ccccde"/><ellipse cx="148.62" cy="224.943" rx="4.669" ry="7.654" style="fill:#fff" transform="rotate(-49.217 148.632 224.946)"/><path d="M151.596 232.566c-2.277 0-4.83-1.076-7.005-2.952-1.754-1.513-3.051-3.376-3.652-5.247-.676-2.098-.401-4.067.751-5.402.915-1.062 2.319-1.646 3.956-1.646 2.276 0 4.83 1.076 7.004 2.952 3.887 3.353 5.161 8.031 2.901 10.65-.915 1.061-2.319 1.645-3.955 1.645m-5.95-12.247c-.531 0-1.254.105-1.685.604-.453.525-.515 1.446-.167 2.525.429 1.333 1.434 2.753 2.756 3.894 1.614 1.393 3.501 2.224 5.046 2.224.53 0 1.253-.104 1.684-.604.978-1.133.077-4.119-2.589-6.42-1.615-1.392-3.5-2.223-5.045-2.223" style="fill:#ccccde"/><g style="opacity:.4"><ellipse cx="224.149" cy="226.173" rx="5.052" ry="8.28" style="fill:#eeffe2" transform="rotate(-49.222 224.157 226.184)"/><path d="M227.367 234.299c-2.435 0-5.168-1.153-7.498-3.164-4.152-3.582-5.525-8.567-3.126-11.35.98-1.137 2.428-1.737 4.186-1.737 2.435 0 5.168 1.153 7.499 3.164 4.152 3.582 5.525 8.567 3.126 11.35-.981 1.136-2.428 1.737-4.187 1.737m-6.438-13.251c-.599 0-1.418.121-1.914.696-1.097 1.272-.212 4.51 2.813 7.119 1.768 1.524 3.839 2.436 5.539 2.436.6 0 1.419-.121 1.915-.696 1.097-1.272.212-4.51-2.813-7.119-1.769-1.525-3.839-2.436-5.54-2.436" style="fill:#ccccde"/></g></svg>